<svg width="77" height="17" viewBox="0 0 77 17" fill="none" xmlns="http://www.w3.org/2000/svg">
<path d="M23.7807 2.65432C23.5025 1.61114 22.6795 0.788182 21.6325 0.506137C19.7393 1.84233e-07 12.1434 0 12.1434 0C12.1434 0 4.55136 1.84233e-07 2.65432 0.506137C1.61114 0.784318 0.788182 1.60727 0.506136 2.65432C0 4.5475 0 8.5 0 8.5C0 8.5 0 12.4525 0.506136 14.3457C0.784318 15.3889 1.60727 16.2118 2.65432 16.4939C4.55136 17 12.1434 17 12.1434 17C12.1434 17 19.7393 17 21.6325 16.4939C22.6757 16.2157 23.4986 15.3927 23.7807 14.3457C24.2868 12.4525 24.2868 8.5 24.2868 8.5C24.2868 8.5 24.2868 4.5475 23.7807 2.65432Z" fill="#FF0000"/>
<path d="M9.7171 12.1434L16.0264 8.49998L9.7171 4.85657V12.1434Z" fill="white"/>
<path d="M35.2518 15.4662C34.7727 15.1417 34.4289 14.6394 34.228 13.9555C34.027 13.2717 33.9227 12.3637 33.9227 11.2278V9.68236C33.9227 8.53486 34.0386 7.61532 34.2705 6.91986C34.5023 6.22441 34.8655 5.71827 35.3561 5.40145C35.8468 5.08464 36.492 4.92236 37.2918 4.92236C38.08 4.92236 38.7098 5.08464 39.185 5.40918C39.6602 5.73373 40.008 6.23986 40.2282 6.92759C40.4484 7.61532 40.5566 8.53486 40.5566 9.6785V11.224C40.5566 12.3599 40.4484 13.2717 40.2359 13.9594C40.0234 14.6471 39.6757 15.1533 39.1927 15.4701C38.7136 15.7869 38.0607 15.9492 37.2377 15.9492C36.3955 15.953 35.7309 15.7908 35.2518 15.4662ZM37.9448 13.7971C38.0761 13.4494 38.1457 12.8815 38.1457 12.0971V8.77827C38.1457 8.01327 38.08 7.45691 37.9448 7.10145C37.8134 6.74986 37.5777 6.57214 37.2416 6.57214C36.917 6.57214 36.6891 6.74986 36.5539 7.10145C36.4225 7.45304 36.353 8.01327 36.353 8.77827V12.0971C36.353 12.8853 36.4148 13.4533 36.5423 13.7971C36.6698 14.1449 36.9016 14.3187 37.2377 14.3187C37.5777 14.3187 37.8095 14.1449 37.9448 13.7971Z" fill="white"/>
<path d="M72.138 11.2548V11.7919C72.138 12.4757 72.1573 12.9857 72.1998 13.3296C72.2384 13.6696 72.3234 13.9207 72.4509 14.0753C72.5784 14.2298 72.7755 14.311 73.042 14.311C73.4014 14.311 73.6486 14.1719 73.78 13.8937C73.9114 13.6155 73.9848 13.1519 73.9964 12.5028L76.0634 12.6226C76.075 12.7153 76.0789 12.8428 76.0789 13.0051C76.0789 13.9903 75.8084 14.7244 75.2714 15.2112C74.7343 15.698 73.9732 15.9414 72.988 15.9414C71.8057 15.9414 70.9789 15.5705 70.5036 14.8287C70.0284 14.0869 69.7927 12.9432 69.7927 11.3901V9.53164C69.7927 7.9321 70.04 6.76915 70.5307 6.03119C71.0214 5.2971 71.8636 4.93005 73.0575 4.93005C73.8805 4.93005 74.5102 5.08074 74.9507 5.3821C75.3911 5.68346 75.7002 6.15096 75.8818 6.78846C76.0595 7.42596 76.1523 8.30687 76.1523 9.42733V11.251H72.138V11.2548ZM72.4432 6.77301C72.3234 6.92369 72.2423 7.17096 72.1998 7.51096C72.1573 7.85096 72.138 8.37255 72.138 9.06414V9.82914H73.892V9.06414C73.892 8.38028 73.8689 7.86255 73.8225 7.51096C73.7761 7.15937 73.6911 6.90824 73.5714 6.76528C73.4516 6.62233 73.2623 6.54892 73.0073 6.54892C72.7523 6.54505 72.563 6.62233 72.4432 6.77301Z" fill="white"/>
<path d="M29.4177 11.0539L26.69 1.20552H29.07L30.0243 5.66802C30.2677 6.76916 30.4455 7.70416 30.5614 8.48075H30.6309C30.712 7.92439 30.8898 6.99325 31.168 5.68348L32.157 1.20166H34.537L31.7784 11.0539V15.7792H29.4177V11.0539Z" fill="white"/>
<path d="M48.2955 5.13098V15.7753H46.4216L46.213 14.4733H46.1627C45.6527 15.4585 44.8877 15.9492 43.8716 15.9492C43.1646 15.9492 42.643 15.7173 42.3068 15.2537C41.9707 14.7901 41.8046 14.0676 41.8046 13.0823V5.13098H44.2V12.9471C44.2 13.4223 44.2502 13.7623 44.3546 13.9633C44.4589 14.1642 44.6327 14.2685 44.8762 14.2685C45.0848 14.2685 45.2857 14.2067 45.475 14.0792C45.6643 13.9517 45.8073 13.7894 45.9 13.5923V5.13098H48.2955Z" fill="white"/>
<path d="M60.5896 5.13098V15.7753H58.7157L58.5071 14.4733H58.4568C57.9468 15.4585 57.1818 15.9492 56.1657 15.9492C55.4587 15.9492 54.9371 15.7173 54.6009 15.2537C54.2648 14.7901 54.0987 14.0676 54.0987 13.0823V5.13098H56.4941V12.9471C56.4941 13.4223 56.5443 13.7623 56.6487 13.9633C56.753 14.1642 56.9268 14.2685 57.1703 14.2685C57.3789 14.2685 57.5798 14.2067 57.7691 14.0792C57.9584 13.9517 58.1014 13.7894 58.1941 13.5923V5.13098H60.5896Z" fill="white"/>
<path d="M54.8095 3.13352H52.4295V15.7753H50.0843V3.13352H47.7043V1.20557H54.8057V3.13352H54.8095Z" fill="white"/>
<path d="M68.5216 6.83482C68.3748 6.16255 68.143 5.67573 67.8184 5.37437C67.4939 5.073 67.0496 4.92232 66.4816 4.92232C66.0411 4.92232 65.6316 5.04596 65.2491 5.29709C64.8666 5.54437 64.573 5.87278 64.3643 6.27846H64.345V0.668457H62.0345V15.7791H64.0127L64.2561 14.7707H64.3064C64.4918 15.13 64.77 15.4121 65.1409 15.6207C65.5118 15.8294 65.9214 15.9337 66.3734 15.9337C67.1848 15.9337 67.7798 15.5589 68.1623 14.8132C68.5448 14.0675 68.7341 12.9007 68.7341 11.3128V9.62823C68.738 8.43823 68.6645 7.50709 68.5216 6.83482ZM66.3232 11.1775C66.3232 11.9541 66.2923 12.5607 66.2266 13.0012C66.1648 13.4416 66.0566 13.7546 65.9059 13.94C65.7552 14.1255 65.5543 14.2182 65.2993 14.2182C65.1023 14.2182 64.9207 14.1719 64.7507 14.0791C64.5845 13.9864 64.4455 13.8473 64.3411 13.6619V7.61528C64.4223 7.3255 64.5614 7.08982 64.7584 6.90437C64.9555 6.71891 65.168 6.62618 65.3998 6.62618C65.6432 6.62618 65.8325 6.72278 65.9639 6.91209C66.0952 7.10141 66.188 7.42596 66.242 7.87414C66.2923 8.32618 66.3193 8.96755 66.3193 9.80209V11.1775H66.3232Z" fill="white"/>
</svg>
