<svg width="24" height="21" viewBox="0 0 24 21" fill="none" xmlns="http://www.w3.org/2000/svg">
<path d="M13.6751 0C8.0083 0 3.42501 4.70909 3.42501 10.5H0L4.44629 15.0436L4.49611 15.2091L9.10431 10.5H5.7042C5.7042 5.99455 9.27867 2.32909 13.7001 2.32909C18.109 2.32909 21.671 5.99455 21.671 10.5C21.671 15.0055 18.109 18.6709 13.7001 18.6709C11.4831 18.6709 9.4904 17.7418 8.04567 16.2527L6.42657 17.9073C8.29476 19.8164 10.8479 21 13.6876 21C19.3918 21 24 16.2909 24 10.5C24 4.69636 19.3918 0 13.7125 0H13.6751ZM12.5542 5.82909V11.6836L17.4364 14.6109L18.2584 13.2109L14.273 10.7927V5.82909H12.5542Z" fill="black"/>
</svg>
