<svg width="21" height="24" viewBox="0 0 21 24" fill="none" xmlns="http://www.w3.org/2000/svg">
<path d="M10.5005 8.57487L17.4378 13.0985H3.56312L10.5005 8.57487ZM10.5005 6.86558L0.24408 13.5535C-0.186915 13.8335 -0.0105506 14.579 0.487377 14.579H20.5139C21.0097 14.579 21.1868 13.8343 20.7569 13.5535L10.5005 6.86558ZM11.1556 6.00854H9.8453V3.89115C9.8453 3.89115 10.3595 3.86674 10.5005 3.85754C11.0292 3.82353 11.542 3.30658 11.542 2.6572C11.542 2.34511 11.4323 2.0458 11.2369 1.82512C11.0416 1.60444 10.7767 1.48047 10.5005 1.48047C10.2242 1.48047 9.95931 1.60444 9.76399 1.82512C9.56866 2.0458 9.45893 2.34511 9.45893 2.6572H8.14859C8.14858 2.16356 8.27029 1.67969 8.50005 1.25982C8.72982 0.839953 9.05857 0.5007 9.44943 0.280098C9.8403 0.0594966 10.2778 -0.033731 10.713 0.0108688C11.1481 0.0554685 11.5636 0.236132 11.913 0.532603C12.2623 0.829073 12.5317 1.22963 12.6908 1.68936C12.8499 2.14908 12.8926 2.64981 12.8139 3.13538C12.7353 3.62095 12.5385 4.07218 12.2456 4.43846C11.9527 4.80474 11.5753 5.0716 11.1556 5.20912V6.00854Z" fill="black"/>
<path d="M9.18623 5.79086H11.8151V7.72221H9.18623V5.79086ZM6.58752 22.005H7.90175V24H6.58752V22.005ZM11.8452 22.005H13.1594V24H11.8452V22.005ZM13.403 14.2621H15.3962V20.0365H13.403V14.2621ZM9.21634 22.005H10.5306V24H9.21634V22.005Z" fill="black"/>
<path d="M5.98051 13.0889H13.6835V22.2915H5.98051V13.0889Z" fill="black"/>
</svg>
