<svg width="24" height="24" viewBox="0 0 24 24" fill="none" xmlns="http://www.w3.org/2000/svg">
<path d="M21.233 2.62132V21.233H2.62132V2.62132H21.233ZM21.233 0.00404246H2.62132C1.92717 0.00404246 1.26146 0.27979 0.770624 0.770624C0.27979 1.26146 0.00404246 1.92717 0.00404246 2.62132V21.233C-0.0157519 21.5888 0.0372953 21.9448 0.159934 22.2793C0.282572 22.6139 0.47222 22.9198 0.717257 23.1785C0.962294 23.4371 1.25756 23.643 1.58497 23.7835C1.91237 23.9241 2.26503 23.9963 2.62132 23.9957H21.233C21.6014 24.0168 21.97 23.9598 22.3147 23.8284C22.6595 23.6971 22.9725 23.4943 23.2334 23.2334C23.4943 22.9725 23.6971 22.6595 23.8284 22.3147C23.9598 21.97 24.0168 21.6014 23.9957 21.233V2.62132C23.9963 2.26503 23.9241 1.91237 23.7835 1.58497C23.643 1.25756 23.4371 0.962294 23.1785 0.717257C22.9198 0.47222 22.6139 0.282572 22.2793 0.159934C21.9448 0.0372953 21.5888 -0.0157519 21.233 0.00404246Z" fill="black"/>
<path d="M9.3099 7.56506V17.0163L16.5801 12.3634L9.3099 7.71047V7.56506Z" fill="black"/>
</svg>
