<svg width="24" height="17" viewBox="0 0 24 17" fill="none" xmlns="http://www.w3.org/2000/svg">
<path d="M23.736 3.60222C23.736 3.60222 23.496 1.95751 22.776 1.2372C21.876 0.276786 20.856 0.276786 20.376 0.21676C17.04 -0.0233436 12 0.00066697 12 0.00066697C12 0.00066697 6.984 -0.0233436 3.636 0.21676C3.156 0.276786 2.148 0.276786 1.236 1.2372C0.516 1.95751 0.276 3.60222 0.276 3.60222C0.276 3.60222 0.036 5.55906 0 7.47989V9.52077C0.036 11.4416 0.276 13.3624 0.276 13.3624C0.276 13.3624 0.516 15.0432 1.236 15.7635C2.148 16.7239 3.336 16.6759 3.876 16.7839C5.76 16.964 11.796 17 12 17C12 17 17.04 17 20.4 16.7599C20.856 16.7119 21.876 16.7119 22.8 15.7515C23.52 15.0312 23.76 13.3744 23.76 13.3744C23.76 13.3744 24 11.4536 24 9.50877V7.46789C23.976 5.54706 23.736 3.60222 23.736 3.60222ZM9.576 12.0058V4.99482L15.996 8.63239L9.564 12.0058H9.576Z" fill="black"/>
</svg>
