<svg width="23" height="24" viewBox="0 0 23 24" fill="none" xmlns="http://www.w3.org/2000/svg">
<path d="M20.2936 13.176C20.3408 12.792 20.3762 12.408 20.3762 12C20.3762 11.592 20.3408 11.208 20.2936 10.824L22.7707 8.844C23.0066 8.664 23.0655 8.34 22.924 8.076L20.5649 3.924C20.4233 3.66 20.0931 3.564 19.8571 3.66L16.9083 4.86C16.2949 4.38 15.6343 3.984 14.903 3.684L14.4666 0.504C14.3958 0.216 14.1481 0 13.8768 0H9.15858C8.8401 0 8.5924 0.216 8.56881 0.504L8.09698 3.684C7.38925 3.984 6.7169 4.404 6.09174 4.86L3.16644 3.66C2.89514 3.54 2.57666 3.66 2.45871 3.924L0.0995984 8.076C-0.0655394 8.34 0.00523413 8.676 0.217554 8.844L2.71821 10.824C2.67103 11.208 2.63564 11.604 2.63564 12C2.63564 12.396 2.65923 12.792 2.70642 13.176L0.22935 15.156C-0.00656143 15.336 -0.0655393 15.66 0.0760073 15.924L2.43512 20.076C2.57666 20.34 2.90694 20.436 3.14285 20.34L6.09174 19.14C6.70511 19.62 7.36566 20.016 8.09698 20.316L8.53342 23.496C8.5806 23.784 8.82831 24 9.1232 24H13.8414C14.1363 24 14.384 23.784 14.4312 23.496L14.8676 20.316C15.5754 20.016 16.2477 19.596 16.8729 19.14L19.7982 20.34C20.0695 20.46 20.3879 20.34 20.5059 20.076L22.865 15.924C23.0184 15.66 22.9594 15.324 22.7471 15.156L20.2464 13.176H20.2936ZM11.5295 16.2C9.25295 16.2 7.40105 14.316 7.40105 12C7.40105 9.684 9.25295 7.8 11.5295 7.8C13.806 7.8 15.6579 9.684 15.6579 12C15.6579 14.316 13.806 16.2 11.5295 16.2Z" fill="black"/>
</svg>
