<svg width="24" height="17" viewBox="0 0 24 17" fill="none" xmlns="http://www.w3.org/2000/svg">
<path fill-rule="evenodd" clip-rule="evenodd" d="M24 9.71429V3.64286L18 0L12 3.64286L6 0L0 3.64286V9.71429L12 17L24 9.71429ZM8.4 7.28571H6V9.71429H4.8V7.28571H2.4V6.07143H4.8V3.64286H6V6.07143H8.4V7.28571ZM15.6 9.71429C14.94 9.71429 14.4 9.16786 14.4 8.5C14.4 7.83214 14.94 7.28571 15.6 7.28571C16.26 7.28571 16.8 7.83214 16.8 8.5C16.8 9.16786 16.26 9.71429 15.6 9.71429ZM19.2 7.28571C18.54 7.28571 18 6.73929 18 6.07143C18 5.40357 18.54 4.85714 19.2 4.85714C19.86 4.85714 20.4 5.40357 20.4 6.07143C20.4 6.73929 19.86 7.28571 19.2 7.28571Z" fill="black"/>
</svg>
