<svg width="18" height="24" viewBox="0 0 18 24" fill="none" xmlns="http://www.w3.org/2000/svg">
<path d="M16.276 10.9336C15.9747 10.5336 15.6209 10.187 15.2802 9.84028C14.4284 9.04026 13.4456 8.46691 12.6201 7.62688C10.707 5.68016 10.2877 2.46674 11.5063 0C10.327 0.306675 9.21315 1.00003 8.29589 1.76005C4.96756 4.53346 3.65719 9.42694 5.22963 13.6271C5.28204 13.7604 5.33446 13.8937 5.33446 14.0671C5.33446 14.3604 5.1379 14.6271 4.87583 14.7338C4.58755 14.8671 4.27306 14.7871 4.03719 14.5737C3.95857 14.5071 3.90616 14.4404 3.84064 14.3471C2.39923 12.4404 2.16337 9.70694 3.14614 7.52021C0.997137 9.3336 -0.142885 12.4004 0.0143598 15.2938C0.0667745 15.9605 0.145397 16.6271 0.368159 17.2938C0.551611 18.0938 0.892307 18.8939 1.31163 19.6006C2.67441 21.9073 5.07239 23.5607 7.65381 23.894C10.4056 24.254 13.3539 23.734 15.4636 21.7606C17.8223 19.5472 18.674 16.0271 17.4292 12.9604L17.2588 12.6137C16.9967 12.0137 16.6429 11.4537 16.2367 10.947L16.276 10.9336ZM12.2139 19.3339C11.847 19.6539 11.2573 20.0006 10.7987 20.1339C9.35729 20.6406 7.91589 19.9206 7.02484 19.0405C8.59728 18.6672 9.51454 17.4938 9.77661 16.3071C9.99937 15.2404 9.59316 14.3604 9.42281 13.3337C9.26557 12.347 9.29177 11.507 9.68489 10.587C9.88144 11.0936 10.1435 11.6003 10.4449 12.0003C11.4408 13.3337 13.0001 13.9204 13.3277 15.7338C13.3801 15.9205 13.4063 16.1071 13.4063 16.3071C13.4456 17.4005 12.987 18.6005 12.2008 19.3205L12.2139 19.3339Z" fill="black"/>
</svg>
