<svg width="24" height="18" viewBox="0 0 24 18" fill="none" xmlns="http://www.w3.org/2000/svg">
<path d="M17.3891 3.27375L15.8509 4.905C16.8327 5.9625 17.4436 7.4025 17.4436 9C17.4436 10.5975 16.8327 12.0487 15.8509 13.095L17.3891 14.7262C18.7745 13.2525 19.6255 11.2275 19.6255 9C19.6255 6.7725 18.7745 4.73625 17.3891 3.27375ZM20.4764 0L18.9382 1.63125C20.7055 3.52125 21.8182 6.12 21.8182 9.01125C21.8182 11.9025 20.7164 14.5012 18.9382 16.3687L20.4655 18C22.6582 15.705 24 12.5212 24 9.01125C24 5.49 22.6582 2.30625 20.4764 0ZM6.61091 3.27375C5.22545 4.73625 4.37455 6.76125 4.37455 9C4.37455 11.2388 5.22545 13.2638 6.61091 14.7262L8.14909 13.095C7.16727 12.0375 6.55636 10.5975 6.55636 9C6.55636 7.4025 7.16727 5.95125 8.14909 4.905L6.61091 3.27375ZM5.06182 1.63125L3.53455 0C1.34182 2.295 0 5.47875 0 8.98875C0 12.51 1.34182 15.6938 3.52364 18L5.06182 16.3687C3.29455 14.4787 2.18182 11.88 2.18182 8.98875C2.18182 6.0975 3.28364 3.49875 5.06182 1.63125Z" fill="black"/>
<path d="M12 12.375C13.8075 12.375 15.2727 10.864 15.2727 9C15.2727 7.13604 13.8075 5.625 12 5.625C10.1925 5.625 8.72727 7.13604 8.72727 9C8.72727 10.864 10.1925 12.375 12 12.375Z" fill="black"/>
</svg>
